<?xml version="1.0" standalone="no"?>
<!DOCTYPE svg PUBLIC "-//W3C//DTD SVG 20010904//EN"
 "http://www.w3.org/TR/2001/REC-SVG-20010904/DTD/svg10.dtd">
<svg version="1.0" xmlns="http://www.w3.org/2000/svg"
 width="500.000000pt" height="500.000000pt" viewBox="0 0 500.000000 500.000000"
 preserveAspectRatio="xMidYMid meet">
<metadata>
Created by potrace 1.16, written by Peter Selinger 2001-2019
</metadata>
<g transform="translate(0.000000,500.000000) scale(0.100000,-0.100000)"
fill="#000000" stroke="none">
<path d="M900 3001 c-70 -15 -121 -54 -153 -117 -17 -32 -57 -314 -57 -394 0
-118 100 -188 227 -160 27 6 65 23 85 37 39 26 88 110 88 149 0 20 -7 22 -76
29 -81 7 -90 4 -96 -35 -2 -19 -10 -26 -30 -28 -34 -4 -34 -3 -9 202 15 117
23 153 37 163 22 16 44 0 44 -33 0 -29 19 -34 100 -26 l65 7 3 40 c8 111 -103
192 -228 166z"/>
<path d="M1328 2996 c-26 -7 -62 -24 -81 -39 -56 -43 -73 -93 -98 -295 -19
-155 -20 -188 -10 -224 41 -135 243 -155 349 -34 39 45 46 73 71 276 22 181
19 224 -22 268 -46 51 -130 70 -209 48z m74 -164 c2 -10 -5 -87 -15 -172 -14
-115 -23 -160 -36 -173 -14 -15 -20 -15 -35 -4 -17 13 -17 19 3 183 16 123 26
172 37 181 20 14 42 7 46 -15z"/>
<path d="M2639 2996 c-25 -6 -59 -22 -76 -34 -62 -44 -73 -75 -101 -296 l-25
-203 24 -49 c33 -66 73 -88 158 -88 98 1 182 52 211 129 13 35 41 236 34 247
-7 11 -182 10 -188 -1 -13 -20 -19 -131 -7 -131 16 0 14 -52 -4 -77 -16 -23
-40 -22 -48 1 -3 7 3 78 14 157 10 79 18 152 19 161 0 23 28 48 45 42 10 -4
15 -20 15 -45 l0 -39 86 0 86 0 -4 74 c-3 63 -7 79 -28 101 -50 53 -131 73
-211 51z"/>
<path d="M1645 2988 c-5 -18 -75 -608 -75 -635 0 -22 3 -23 108 -23 165 0 241
32 286 119 18 35 56 301 56 395 0 54 -3 61 -38 96 -21 21 -55 43 -77 49 -57
16 -254 15 -260 -1z m195 -153 c20 -24 -16 -311 -42 -337 -21 -21 -44 -19 -41
3 1 8 9 79 18 159 9 80 18 155 21 168 5 25 26 29 44 7z"/>
<path d="M2095 2988 c-5 -18 -75 -608 -75 -635 0 -23 0 -23 179 -23 l179 0 6
28 c2 15 8 48 11 75 l6 47 -94 0 c-51 0 -96 2 -98 5 -3 2 -3 26 1 52 l5 48 56
3 56 3 7 46 c3 25 6 59 6 74 0 28 -2 29 -50 29 l-50 0 0 39 c0 70 2 71 105 71
52 0 96 3 98 8 3 4 8 37 12 75 l7 67 -181 0 c-137 0 -183 -3 -186 -12z"/>
<path d="M2955 2988 c-8 -22 -82 -643 -78 -650 2 -5 39 -8 83 -8 91 0 81 -14
101 154 14 125 21 119 39 -34 6 -57 14 -108 16 -112 6 -9 157 -11 165 -3 3 2
-4 67 -15 144 l-20 139 32 36 c40 46 66 133 58 194 -9 64 -35 104 -86 130 -39
19 -59 22 -167 22 -90 0 -125 -3 -128 -12z"/>
<path d="M3427 2676 c-59 -179 -107 -330 -107 -336 0 -7 27 -10 82 -8 l83 3 9
43 9 42 47 0 c50 0 60 -10 60 -67 0 -22 4 -23 86 -23 l85 0 -6 78 c-4 42 -17
192 -29 332 l-21 255 -95 3 -96 3 -107 -325z"/>
<path d="M3895 2968 c-7 -45 -75 -605 -75 -623 0 -12 17 -15 79 -15 44 0 82 4
85 8 2 4 15 93 27 197 12 105 26 194 29 198 4 5 17 -17 30 -47 l22 -56 40 55
c21 30 41 55 43 55 4 0 2 -16 -25 -235 -11 -88 -20 -163 -20 -167 0 -5 38 -8
85 -8 47 0 85 2 85 4 0 3 18 151 40 330 22 178 40 327 40 330 0 3 -37 6 -83 6
l-82 0 -45 -72 -44 -71 -32 71 -33 72 -80 0 -80 0 -6 -32z"/>
</g>
</svg>
